<?xml version="1.0" encoding="utf-8"?>
<!-- Generator: Adobe Illustrator 26.1.0, SVG Export Plug-In . SVG Version: 6.00 Build 0)  -->
<svg version="1.1" id="Group_36" xmlns="http://www.w3.org/2000/svg" xmlns:xlink="http://www.w3.org/1999/xlink" x="0px" y="0px"
	 viewBox="0 0 30.8 30.8" style="enable-background:new 0 0 30.8 30.8;" xml:space="preserve">
<style type="text/css">
	.st0{clip-path:url(#SVGID_00000078729828588330838520000008254505065760699578_);}
	.st1{fill:#F3EFE9;}
</style>
<g>
	<defs>
		<rect id="SVGID_1_" width="30.8" height="30.8"/>
	</defs>
	<clipPath id="SVGID_00000165231011714889588340000015683044949060349615_">
		<use xlink:href="#SVGID_1_"  style="overflow:visible;"/>
	</clipPath>
	<g id="Group_35" style="clip-path:url(#SVGID_00000165231011714889588340000015683044949060349615_);">
		<path id="Path_3219" class="st1" d="M6.1,20.6L6.1,20.6L6.1,20.6l0.1-0.1c-0.1,0-0.1,0-0.2,0c0,0-0.1-0.1-0.1-0.1
			c-0.1-0.1-0.1-0.2,0-0.3c0.1-0.1,0.2-0.2,0.4-0.3c0.1-0.1,0.3-0.1,0.5-0.1c0.1,0,0.2,0.1,0.3,0.2c0,0,0,0.1,0,0.2
			c0,0.1,0,0.1-0.1,0.2l0.1,0L7.2,20l0.6-0.3L8,20.1L6.3,21L6.1,20.6z M6.5,20.1c-0.1,0.1-0.2,0.1-0.2,0.2s0.1,0.1,0.3,0
			c0.1-0.1,0.2-0.1,0.2-0.2C6.8,20.1,6.7,20.1,6.5,20.1"/>
		<path id="Path_3220" class="st1" d="M7.2,21.6l0.2,0.4c-0.1,0.1-0.2,0.1-0.4,0c-0.1,0-0.2-0.1-0.3-0.2c-0.1-0.1-0.1-0.3-0.1-0.4
			c0-0.2,0.1-0.3,0.3-0.4c0.1-0.1,0.3-0.2,0.5-0.1c0.2,0,0.3,0.1,0.4,0.2c0.1,0.1,0.1,0.3,0.1,0.4c0,0.2-0.2,0.3-0.3,0.4l-0.1,0
			l-0.4-0.5C7,21.4,7,21.5,7,21.5C7.1,21.6,7.1,21.6,7.2,21.6 M7.5,21.4C7.5,21.3,7.5,21.3,7.5,21.4C7.5,21.3,7.5,21.3,7.5,21.4
			c0.1-0.1,0.1-0.1,0.1-0.1c0,0,0,0,0,0c0,0,0,0-0.1,0c0,0-0.1,0-0.1,0L7.5,21.4z"/>
		<path id="Path_3221" class="st1" d="M7.3,22.3l0.4-0.1c0,0.1,0,0.2,0.1,0.3c0,0,0.1,0.1,0.1,0s0-0.1,0-0.2c-0.1-0.1-0.1-0.3,0-0.5
			c0.1-0.1,0.2-0.1,0.3-0.1c0.1,0,0.2,0.1,0.3,0.2c0.1,0.1,0.1,0.2,0.2,0.3l-0.3,0.1c0-0.1,0-0.1,0-0.2c0,0-0.1,0-0.1,0s0,0.1,0,0.2
			c0,0.1,0.1,0.2,0,0.3c0,0.1-0.1,0.1-0.1,0.2c-0.1,0.1-0.2,0.1-0.3,0.1c-0.1,0-0.2-0.1-0.3-0.2c0-0.1-0.1-0.1-0.1-0.2
			c0,0,0-0.1,0-0.1C7.4,22.4,7.3,22.3,7.3,22.3"/>
		<path id="Path_3222" class="st1" d="M8.4,23.5L8,23.2l0.8-0.9l0.3,0.3L8.4,23.5z M9.5,22.4c0,0.1-0.1,0.1-0.2,0.1
			c-0.1,0-0.1,0-0.2-0.1c-0.1,0-0.1-0.1-0.1-0.2c0-0.1,0-0.1,0.1-0.2c0-0.1,0.1-0.1,0.2-0.1c0.1,0,0.1,0,0.2,0.1
			c0.1,0,0.1,0.1,0.1,0.2C9.6,22.2,9.5,22.3,9.5,22.4"/>
		<path id="Path_3223" class="st1" d="M10.2,23.4l-0.7,1c0,0.1-0.1,0.1-0.2,0.2c-0.1,0-0.1,0.1-0.2,0.1c-0.1,0-0.3-0.1-0.4-0.1
			c-0.1-0.1-0.2-0.2-0.2-0.3c0-0.1,0-0.3,0.1-0.4l0.4,0.3c0,0,0,0.1,0,0.1c0,0,0,0,0,0c0,0,0.1,0,0.1,0c0,0,0.1-0.1,0.1-0.1L9.2,24
			c-0.1,0-0.2,0-0.3,0c-0.1-0.1-0.1-0.2-0.1-0.3c0-0.2,0.1-0.3,0.2-0.4C9,23.1,9.2,23,9.3,22.9c0.1-0.1,0.2,0,0.3,0
			c0,0,0.1,0.1,0.1,0.1c0,0.1,0,0.1,0,0.2l0.1-0.1L10.2,23.4z M9.5,23.6c0.1-0.1,0.1-0.2,0.1-0.3c-0.1,0-0.1,0-0.2,0.1
			s-0.1,0.2-0.1,0.3S9.4,23.7,9.5,23.6"/>
		<path id="Path_3224" class="st1" d="M10.7,25.1l-0.4-0.2l0.3-0.6c0,0,0-0.1,0-0.1c0,0,0,0,0-0.1c-0.1,0-0.1,0-0.2,0.1l-0.3,0.5
			l-0.4-0.2l0.6-1.1l0.4,0.2l0,0.1l0,0.1l0,0.1c0.1-0.1,0.3-0.1,0.4-0.1c0.1,0,0.1,0.1,0.1,0.2c0,0.1,0,0.2-0.1,0.3L10.7,25.1z"/>
		<path id="Path_3225" class="st1" d="M13,25.9l-0.4-0.1l0.1-0.7l-0.3,0.7l-0.4-0.1l0-1.2l0.4,0.1l0,0.4c0,0,0,0.1,0,0.2
			s0,0.1,0,0.2c0-0.1,0-0.1,0.1-0.2s0.1-0.1,0.1-0.2l0.2-0.3l0.4,0.1l0,0.4c0,0,0,0.1,0,0.2c0,0.1,0,0.1,0,0.2
			c0-0.1,0.1-0.2,0.1-0.2S13,25,13.1,25l0.1-0.3l0.4,0.1L13,25.9z"/>
		<path id="Path_3226" class="st1" d="M14,26.1L13.5,26l0.2-1.2l0.4,0.1L14,26.1z M14.3,24.5c0,0.1,0,0.1-0.1,0.2
			c-0.1,0-0.1,0.1-0.2,0c-0.1,0-0.1,0-0.2-0.1c0-0.1-0.1-0.1,0-0.2c0-0.1,0-0.1,0.1-0.2c0.1,0,0.1-0.1,0.2,0c0.1,0,0.1,0,0.2,0.1
			C14.3,24.4,14.3,24.4,14.3,24.5"/>
		<path id="Path_3227" class="st1" d="M14.8,26.1l-0.4,0l0.1-0.8l-0.1,0l0-0.4l0.1,0l0-0.4l0.4,0l0,0.4l0.1,0l0,0.4l-0.2,0
			L14.8,26.1z"/>
		<path id="Path_3228" class="st1" d="M16.2,26.1l-0.4,0l0-0.6c0,0,0-0.1,0-0.1c0,0,0,0-0.1,0c-0.1,0-0.1,0.1-0.1,0.2l0,0.6l-0.4,0
			l-0.1-1.9l0.4,0l0,0.7c0,0,0,0.1,0,0.1s0,0,0,0.1s0,0,0,0s0,0,0,0c0.1-0.2,0.2-0.3,0.3-0.3c0.1,0,0.2,0,0.2,0.1
			c0.1,0.1,0.1,0.2,0.1,0.3L16.2,26.1z"/>
		<path id="Path_3229" class="st1" d="M17.8,25.5l0.4-0.1c0,0.1,0,0.2-0.1,0.4c-0.1,0.1-0.2,0.2-0.3,0.2c-0.1,0-0.3,0-0.4-0.1
			c-0.1-0.1-0.2-0.2-0.2-0.4c0-0.2,0-0.3,0-0.5c0.1-0.1,0.2-0.2,0.4-0.3c0.1,0,0.3,0,0.4,0.1c0.1,0.1,0.2,0.3,0.3,0.4l0,0.1
			l-0.6,0.2c0,0.1,0.1,0.2,0.1,0.2C17.8,25.5,17.8,25.5,17.8,25.5 M17.8,25.1C17.8,25.1,17.8,25.1,17.8,25.1
			C17.7,25,17.7,25,17.8,25.1C17.7,25,17.7,25,17.7,25c0,0,0,0,0,0c0,0-0.1,0-0.1,0.1c0,0,0,0.1,0,0.1L17.8,25.1z"/>
		<path id="Path_3230" class="st1" d="M20.3,25l-0.4,0.2l-0.3-0.6c0-0.1-0.1-0.1-0.1-0.1c-0.1,0-0.1,0.1,0,0.2l0.2,0.6l-0.4,0.2
			L19,24.8c0-0.1-0.1-0.1-0.1-0.1c0,0-0.1,0-0.1,0.1c0,0.1,0,0.1,0,0.1l0.2,0.6l-0.4,0.2l-0.5-1.1l0.4-0.2l0,0.1c0,0,0,0.1,0,0.1
			c0-0.1,0.1-0.3,0.2-0.3c0.1-0.1,0.3,0,0.4,0.1c0-0.1,0-0.3,0.2-0.3c0.1,0,0.2,0,0.3,0c0.1,0.1,0.1,0.1,0.2,0.2L20.3,25z"/>
		<path id="Path_3231" class="st1" d="M21.3,25l-0.4,0.2l-0.9-1.5l0.4-0.2l0.1,0.2c0,0,0-0.1,0-0.1c0,0,0-0.1,0-0.1c0,0,0,0,0-0.1
			c0,0,0,0,0.1-0.1c0.1-0.1,0.2-0.1,0.3,0c0.1,0.1,0.3,0.2,0.3,0.3c0.1,0.1,0.1,0.3,0.2,0.4c0,0.1,0,0.2-0.1,0.3
			c-0.1,0.1-0.2,0.1-0.3,0c0,0,0,0.1,0.1,0.1s0,0.1,0.1,0.1L21.3,25z M20.8,23.9c0-0.1-0.1-0.1-0.1-0.1c0,0-0.1,0-0.1,0
			c-0.1,0,0,0.1,0,0.3s0.2,0.2,0.2,0.2c0,0,0-0.1,0-0.1C20.9,24.1,20.8,24,20.8,23.9"/>
		<path id="Path_3232" class="st1" d="M22.6,23.3l-0.3,0.3c0,0,0-0.1-0.1-0.1l-0.1-0.1c0,0.1,0,0.3-0.1,0.4c-0.1,0.1-0.2,0.1-0.3,0
			c-0.1-0.1-0.3-0.2-0.4-0.3c-0.1-0.1-0.2-0.3-0.2-0.4c0-0.1,0-0.2,0.1-0.3c0.1-0.1,0.2-0.1,0.4,0l0,0l0,0l0-0.1l0,0l0.3-0.3
			L22.6,23.3z M21.9,23.2C21.8,23.1,21.8,23.1,21.9,23.2C21.8,23,21.7,23,21.7,23c0,0,0,0-0.1,0c0,0,0,0,0,0c-0.1,0,0,0.1,0.1,0.3
			c0.1,0.1,0.2,0.1,0.2,0.1S22,23.3,21.9,23.2"/>
		<path id="Path_3233" class="st1" d="M23.2,22.7l-0.3,0.3l-0.6-0.6l-0.1,0.1l-0.3-0.2l0.1-0.1L21.7,22l0.3-0.3l0.3,0.2l0.1-0.1
			l0.3,0.2l-0.1,0.1L23.2,22.7z"/>
		<path id="Path_3234" class="st1" d="M24.1,21.6l-0.3,0.4l-0.5-0.4c0,0-0.1,0-0.1-0.1c0,0,0,0-0.1,0c0,0,0,0.1,0.1,0.2l0.5,0.4
			l-0.3,0.4L22,21.3l0.3-0.4l0.5,0.4l0.1,0.1l0,0l0,0l0,0c-0.1-0.1-0.1-0.3,0-0.4C23,21,23.1,21,23.2,21c0.1,0,0.2,0,0.3,0.1
			L24.1,21.6z"/>
		<path id="Path_3235" class="st1" d="M25,21.1l-0.2,0.4l-0.4-0.4l-1.2-0.3l0.2-0.4l0.3,0.1c0,0,0.1,0,0.2,0.1s0.1,0,0.2,0.1
			L24,20.6c-0.1-0.1-0.2-0.2-0.2-0.2l-0.2-0.2l0.2-0.4L25,21.1z"/>
		<path id="Path_3236" class="st1" d="M18.6,11.7c0-0.9,0.8-1.6,1.6-1.6c0.9,0,1.6,0.8,1.6,1.6c0,0.9-0.7,1.6-1.6,1.6
			C19.4,13.4,18.6,12.7,18.6,11.7C18.6,11.8,18.6,11.7,18.6,11.7"/>
		<path id="Path_3237" class="st1" d="M9,11.7c0-0.9,0.8-1.6,1.6-1.6c0.9,0,1.6,0.8,1.6,1.6c0,0.9-0.7,1.6-1.6,1.6
			C9.7,13.4,9,12.7,9,11.7C9,11.8,9,11.7,9,11.7"/>
		<path id="Path_3238" class="st1" d="M15.4,0C6.9,0,0,6.9,0,15.4s6.9,15.4,15.4,15.4s15.4-6.9,15.4-15.4c0,0,0,0,0,0
			C30.8,6.9,23.9,0,15.4,0C15.4,0,15.4,0,15.4,0 M15.4,28.8c-7.4,0-13.5-6-13.5-13.5S8,1.9,15.4,1.9s13.5,6,13.5,13.5
			S22.8,28.8,15.4,28.8L15.4,28.8"/>
	</g>
</g>
</svg>
